<svg xmlns="http://www.w3.org/2000/svg" width="760" height="224"><style>line, path, circle, rect, polygon{stroke:black;stroke-width:2;stroke-opacity:1;fill-opacity:1;stroke-linecap:round;stroke-linejoin:miter;}text{font-family:Iosevka Fixed, monospace;font-size:14px;}rect.backdrop{stroke:none;fill:white;}.broken{stroke-dasharray:8;}.filled{fill:black;}.bg_filled{fill:white;}.nofill{fill:white;}.end_marked_arrow{marker-end:url(#arrow);}.start_marked_arrow{marker-start:url(#arrow);}.end_marked_diamond{marker-end:url(#diamond);}.start_marked_diamond{marker-start:url(#diamond);}.end_marked_circle{marker-end:url(#circle);}.start_marked_circle{marker-start:url(#circle);}.end_marked_open_circle{marker-end:url(#open_circle);}.start_marked_open_circle{marker-start:url(#open_circle);}.end_marked_big_open_circle{marker-end:url(#big_open_circle);}.start_marked_big_open_circle{marker-start:url(#big_open_circle);}<!--separator--></style><defs><marker id="arrow" viewBox="-2 -2 8 8" refX="4" refY="2" markerWidth="7" markerHeight="7" orient="auto-start-reverse"><polygon points="0,0 0,4 4,2 0,0"></polygon></marker><marker id="diamond" viewBox="-2 -2 8 8" refX="4" refY="2" markerWidth="7" markerHeight="7" orient="auto-start-reverse"><polygon points="0,2 2,0 4,2 2,4 0,2"></polygon></marker><marker id="circle" viewBox="0 0 8 8" refX="4" refY="4" markerWidth="7" markerHeight="7" orient="auto-start-reverse"><circle cx="4" cy="4" r="2" class="filled"></circle></marker><marker id="open_circle" viewBox="0 0 8 8" refX="4" refY="4" markerWidth="7" markerHeight="7" orient="auto-start-reverse"><circle cx="4" cy="4" r="2" class="bg_filled"></circle></marker><marker id="big_open_circle" viewBox="0 0 8 8" refX="4" refY="4" markerWidth="7" markerHeight="7" orient="auto-start-reverse"><circle cx="4" cy="4" r="3" class="bg_filled"></circle></marker></defs><rect class="backdrop" x="0" y="0" width="760" height="224"></rect><rect x="8" y="0" width="8" height="16" class="solid filled" rx="0"></rect><rect x="16" y="0" width="8" height="16" class="solid filled" rx="0"></rect><rect x="0" y="16" width="8" height="16" class="solid filled" rx="0"></rect><rect x="8" y="16" width="8" height="16" class="solid filled" rx="0"></rect><rect x="0" y="32" width="8" height="16" class="solid filled" rx="0"></rect><rect x="8" y="32" width="8" height="16" class="solid filled" rx="0"></rect><rect x="0" y="48" width="8" height="16" class="solid filled" rx="0"></rect><rect x="8" y="48" width="8" height="16" class="solid filled" rx="0"></rect><rect x="8" y="64" width="8" height="16" class="solid filled" rx="0"></rect><rect x="16" y="64" width="8" height="16" class="solid filled" rx="0"></rect><rect x="72" y="0" width="8" height="16" class="solid filled" rx="0"></rect><rect x="80" y="0" width="8" height="16" class="solid filled" rx="0"></rect><rect x="88" y="0" width="8" height="16" class="solid filled" rx="0"></rect><rect x="96" y="0" width="8" height="16" class="solid filled" rx="0"></rect><rect x="104" y="0" width="8" height="16" class="solid filled" rx="0"></rect><rect x="112" y="0" width="8" height="16" class="solid filled" rx="0"></rect><rect x="64" y="16" width="8" height="16" class="solid filled" rx="0"></rect><rect x="72" y="16" width="8" height="16" class="solid filled" rx="0"></rect><rect x="64" y="32" width="8" height="16" class="solid filled" rx="0"></rect><rect x="72" y="32" width="8" height="16" class="solid filled" rx="0"></rect><rect x="104" y="32" width="8" height="16" class="solid filled" rx="0"></rect><rect x="112" y="32" width="8" height="16" class="solid filled" rx="0"></rect><rect x="120" y="32" width="8" height="16" class="solid filled" rx="0"></rect><rect x="64" y="48" width="8" height="16" class="solid filled" rx="0"></rect><rect x="72" y="48" width="8" height="16" class="solid filled" rx="0"></rect><rect x="112" y="48" width="8" height="16" class="solid filled" rx="0"></rect><rect x="120" y="48" width="8" height="16" class="solid filled" rx="0"></rect><rect x="72" y="64" width="8" height="16" class="solid filled" rx="0"></rect><rect x="80" y="64" width="8" height="16" class="solid filled" rx="0"></rect><rect x="88" y="64" width="8" height="16" class="solid filled" rx="0"></rect><rect x="96" y="64" width="8" height="16" class="solid filled" rx="0"></rect><rect x="104" y="64" width="8" height="16" class="solid filled" rx="0"></rect><rect x="112" y="64" width="8" height="16" class="solid filled" rx="0"></rect><rect x="168" y="0" width="8" height="16" class="solid filled" rx="0"></rect><rect x="176" y="0" width="8" height="16" class="solid filled" rx="0"></rect><rect x="176" y="16" width="8" height="16" class="solid filled" rx="0"></rect><rect x="184" y="16" width="8" height="16" class="solid filled" rx="0"></rect><rect x="176" y="32" width="8" height="16" class="solid filled" rx="0"></rect><rect x="184" y="32" width="8" height="16" class="solid filled" rx="0"></rect><rect x="176" y="48" width="8" height="16" class="solid filled" rx="0"></rect><rect x="184" y="48" width="8" height="16" class="solid filled" rx="0"></rect><rect x="168" y="64" width="8" height="16" class="solid filled" rx="0"></rect><rect x="176" y="64" width="8" height="16" class="solid filled" rx="0"></rect><rect x="312" y="0" width="8" height="16" class="solid filled" rx="0"></rect><rect x="320" y="0" width="8" height="16" class="solid filled" rx="0"></rect><rect x="312" y="16" width="8" height="16" class="solid filled" rx="0"></rect><rect x="320" y="16" width="8" height="16" class="solid filled" rx="0"></rect><rect x="312" y="32" width="8" height="16" class="solid filled" rx="0"></rect><rect x="320" y="32" width="8" height="16" class="solid filled" rx="0"></rect><rect x="312" y="48" width="8" height="16" class="solid filled" rx="0"></rect><rect x="320" y="48" width="8" height="16" class="solid filled" rx="0"></rect><rect x="312" y="64" width="8" height="16" class="solid filled" rx="0"></rect><rect x="320" y="64" width="8" height="16" class="solid filled" rx="0"></rect><rect x="368" y="0" width="8" height="16" class="solid filled" rx="0"></rect><rect x="376" y="0" width="8" height="16" class="solid filled" rx="0"></rect><rect x="384" y="0" width="8" height="16" class="solid filled" rx="0"></rect><rect x="392" y="0" width="8" height="16" class="solid filled" rx="0"></rect><rect x="400" y="0" width="8" height="16" class="solid filled" rx="0"></rect><rect x="408" y="0" width="8" height="16" class="solid filled" rx="0"></rect><rect x="368" y="16" width="8" height="16" class="solid filled" rx="0"></rect><rect x="376" y="16" width="8" height="16" class="solid filled" rx="0"></rect><rect x="408" y="16" width="8" height="16" class="solid filled" rx="0"></rect><rect x="416" y="16" width="8" height="16" class="solid filled" rx="0"></rect><rect x="368" y="32" width="8" height="16" class="solid filled" rx="0"></rect><rect x="376" y="32" width="8" height="16" class="solid filled" rx="0"></rect><rect x="408" y="32" width="8" height="16" class="solid filled" rx="0"></rect><rect x="416" y="32" width="8" height="16" class="solid filled" rx="0"></rect><rect x="368" y="48" width="8" height="16" class="solid filled" rx="0"></rect><rect x="376" y="48" width="8" height="16" class="solid filled" rx="0"></rect><rect x="408" y="48" width="8" height="16" class="solid filled" rx="0"></rect><rect x="416" y="48" width="8" height="16" class="solid filled" rx="0"></rect><rect x="368" y="64" width="8" height="16" class="solid filled" rx="0"></rect><rect x="376" y="64" width="8" height="16" class="solid filled" rx="0"></rect><rect x="384" y="64" width="8" height="16" class="solid filled" rx="0"></rect><rect x="392" y="64" width="8" height="16" class="solid filled" rx="0"></rect><rect x="400" y="64" width="8" height="16" class="solid filled" rx="0"></rect><rect x="408" y="64" width="8" height="16" class="solid filled" rx="0"></rect><rect x="464" y="0" width="8" height="16" class="solid filled" rx="0"></rect><rect x="472" y="0" width="8" height="16" class="solid filled" rx="0"></rect><rect x="464" y="16" width="8" height="16" class="solid filled" rx="0"></rect><rect x="472" y="16" width="8" height="16" class="solid filled" rx="0"></rect><rect x="464" y="32" width="8" height="16" class="solid filled" rx="0"></rect><rect x="472" y="32" width="8" height="16" class="solid filled" rx="0"></rect><rect x="464" y="48" width="8" height="16" class="solid filled" rx="0"></rect><rect x="472" y="48" width="8" height="16" class="solid filled" rx="0"></rect><rect x="464" y="64" width="8" height="16" class="solid filled" rx="0"></rect><rect x="472" y="64" width="8" height="16" class="solid filled" rx="0"></rect><rect x="480" y="64" width="8" height="16" class="solid filled" rx="0"></rect><rect x="488" y="64" width="8" height="16" class="solid filled" rx="0"></rect><rect x="496" y="64" width="8" height="16" class="solid filled" rx="0"></rect><rect x="504" y="64" width="8" height="16" class="solid filled" rx="0"></rect><rect x="512" y="64" width="8" height="16" class="solid filled" rx="0"></rect><rect x="560" y="0" width="8" height="16" class="solid filled" rx="0"></rect><rect x="568" y="0" width="8" height="16" class="solid filled" rx="0"></rect><rect x="576" y="0" width="8" height="16" class="solid filled" rx="0"></rect><rect x="584" y="0" width="8" height="16" class="solid filled" rx="0"></rect><rect x="592" y="0" width="8" height="16" class="solid filled" rx="0"></rect><rect x="600" y="0" width="8" height="16" class="solid filled" rx="0"></rect><rect x="608" y="0" width="8" height="16" class="solid filled" rx="0"></rect><rect x="560" y="16" width="8" height="16" class="solid filled" rx="0"></rect><rect x="568" y="16" width="8" height="16" class="solid filled" rx="0"></rect><rect x="560" y="32" width="8" height="16" class="solid filled" rx="0"></rect><rect x="568" y="32" width="8" height="16" class="solid filled" rx="0"></rect><rect x="576" y="32" width="8" height="16" class="solid filled" rx="0"></rect><rect x="584" y="32" width="8" height="16" class="solid filled" rx="0"></rect><rect x="592" y="32" width="8" height="16" class="solid filled" rx="0"></rect><rect x="560" y="48" width="8" height="16" class="solid filled" rx="0"></rect><rect x="568" y="48" width="8" height="16" class="solid filled" rx="0"></rect><rect x="560" y="64" width="8" height="16" class="solid filled" rx="0"></rect><rect x="568" y="64" width="8" height="16" class="solid filled" rx="0"></rect><rect x="576" y="64" width="8" height="16" class="solid filled" rx="0"></rect><rect x="584" y="64" width="8" height="16" class="solid filled" rx="0"></rect><rect x="592" y="64" width="8" height="16" class="solid filled" rx="0"></rect><rect x="600" y="64" width="8" height="16" class="solid filled" rx="0"></rect><rect x="608" y="64" width="8" height="16" class="solid filled" rx="0"></rect><rect x="232" y="32" width="8" height="16" class="solid filled" rx="0"></rect><rect x="240" y="32" width="8" height="16" class="solid filled" rx="0"></rect><rect x="248" y="32" width="8" height="16" class="solid filled" rx="0"></rect><rect x="256" y="32" width="8" height="16" class="solid filled" rx="0"></rect><rect x="264" y="32" width="8" height="16" class="solid filled" rx="0"></rect><rect x="0" y="112" width="8" height="16" class="solid filled" rx="0"></rect><rect x="8" y="112" width="8" height="16" class="solid filled" rx="0"></rect><rect x="0" y="128" width="8" height="16" class="solid filled" rx="0"></rect><rect x="8" y="128" width="8" height="16" class="solid filled" rx="0"></rect><rect x="0" y="144" width="8" height="16" class="solid filled" rx="0"></rect><rect x="8" y="144" width="8" height="16" class="solid filled" rx="0"></rect><rect x="0" y="160" width="8" height="16" class="solid filled" rx="0"></rect><rect x="8" y="160" width="8" height="16" class="solid filled" rx="0"></rect><rect x="0" y="176" width="8" height="16" class="solid filled" rx="0"></rect><rect x="8" y="176" width="8" height="16" class="solid filled" rx="0"></rect><rect x="16" y="176" width="8" height="16" class="solid filled" rx="0"></rect><rect x="24" y="176" width="8" height="16" class="solid filled" rx="0"></rect><rect x="32" y="176" width="8" height="16" class="solid filled" rx="0"></rect><rect x="40" y="176" width="8" height="16" class="solid filled" rx="0"></rect><rect x="48" y="176" width="8" height="16" class="solid filled" rx="0"></rect><rect x="96" y="112" width="8" height="16" class="solid filled" rx="0"></rect><rect x="104" y="112" width="8" height="16" class="solid filled" rx="0"></rect><rect x="144" y="112" width="8" height="16" class="solid filled" rx="0"></rect><rect x="152" y="112" width="8" height="16" class="solid filled" rx="0"></rect><rect x="104" y="128" width="8" height="16" class="solid filled" rx="0"></rect><rect x="112" y="128" width="8" height="16" class="solid filled" rx="0"></rect><rect x="136" y="128" width="8" height="16" class="solid filled" rx="0"></rect><rect x="144" y="128" width="8" height="16" class="solid filled" rx="0"></rect><rect x="112" y="144" width="8" height="16" class="solid filled" rx="0"></rect><rect x="120" y="144" width="8" height="16" class="solid filled" rx="0"></rect><rect x="128" y="144" width="8" height="16" class="solid filled" rx="0"></rect><rect x="136" y="144" width="8" height="16" class="solid filled" rx="0"></rect><rect x="120" y="160" width="8" height="16" class="solid filled" rx="0"></rect><rect x="128" y="160" width="8" height="16" class="solid filled" rx="0"></rect><rect x="120" y="176" width="8" height="16" class="solid filled" rx="0"></rect><rect x="128" y="176" width="8" height="16" class="solid filled" rx="0"></rect><rect x="200" y="112" width="8" height="16" class="solid filled" rx="0"></rect><rect x="208" y="112" width="8" height="16" class="solid filled" rx="0"></rect><rect x="216" y="112" width="8" height="16" class="solid filled" rx="0"></rect><rect x="224" y="112" width="8" height="16" class="solid filled" rx="0"></rect><rect x="232" y="112" width="8" height="16" class="solid filled" rx="0"></rect><rect x="240" y="112" width="8" height="16" class="solid filled" rx="0"></rect><rect x="200" y="128" width="8" height="16" class="solid filled" rx="0"></rect><rect x="208" y="128" width="8" height="16" class="solid filled" rx="0"></rect><rect x="240" y="128" width="8" height="16" class="solid filled" rx="0"></rect><rect x="248" y="128" width="8" height="16" class="solid filled" rx="0"></rect><rect x="200" y="144" width="8" height="16" class="solid filled" rx="0"></rect><rect x="208" y="144" width="8" height="16" class="solid filled" rx="0"></rect><rect x="216" y="144" width="8" height="16" class="solid filled" rx="0"></rect><rect x="224" y="144" width="8" height="16" class="solid filled" rx="0"></rect><rect x="232" y="144" width="8" height="16" class="solid filled" rx="0"></rect><rect x="240" y="144" width="8" height="16" class="solid filled" rx="0"></rect><rect x="200" y="160" width="8" height="16" class="solid filled" rx="0"></rect><rect x="208" y="160" width="8" height="16" class="solid filled" rx="0"></rect><rect x="240" y="160" width="8" height="16" class="solid filled" rx="0"></rect><rect x="248" y="160" width="8" height="16" class="solid filled" rx="0"></rect><rect x="200" y="176" width="8" height="16" class="solid filled" rx="0"></rect><rect x="208" y="176" width="8" height="16" class="solid filled" rx="0"></rect><rect x="240" y="176" width="8" height="16" class="solid filled" rx="0"></rect><rect x="248" y="176" width="8" height="16" class="solid filled" rx="0"></rect><rect x="296" y="112" width="8" height="16" class="solid filled" rx="0"></rect><rect x="304" y="112" width="8" height="16" class="solid filled" rx="0"></rect><rect x="296" y="128" width="8" height="16" class="solid filled" rx="0"></rect><rect x="304" y="128" width="8" height="16" class="solid filled" rx="0"></rect><rect x="296" y="144" width="8" height="16" class="solid filled" rx="0"></rect><rect x="304" y="144" width="8" height="16" class="solid filled" rx="0"></rect><rect x="296" y="160" width="8" height="16" class="solid filled" rx="0"></rect><rect x="304" y="160" width="8" height="16" class="solid filled" rx="0"></rect><rect x="296" y="176" width="8" height="16" class="solid filled" rx="0"></rect><rect x="304" y="176" width="8" height="16" class="solid filled" rx="0"></rect><rect x="360" y="112" width="8" height="16" class="solid filled" rx="0"></rect><rect x="368" y="112" width="8" height="16" class="solid filled" rx="0"></rect><rect x="376" y="112" width="8" height="16" class="solid filled" rx="0"></rect><rect x="384" y="112" width="8" height="16" class="solid filled" rx="0"></rect><rect x="392" y="112" width="8" height="16" class="solid filled" rx="0"></rect><rect x="400" y="112" width="8" height="16" class="solid filled" rx="0"></rect><rect x="352" y="128" width="8" height="16" class="solid filled" rx="0"></rect><rect x="360" y="128" width="8" height="16" class="solid filled" rx="0"></rect><rect x="352" y="144" width="8" height="16" class="solid filled" rx="0"></rect><rect x="360" y="144" width="8" height="16" class="solid filled" rx="0"></rect><rect x="352" y="160" width="8" height="16" class="solid filled" rx="0"></rect><rect x="360" y="160" width="8" height="16" class="solid filled" rx="0"></rect><rect x="360" y="176" width="8" height="16" class="solid filled" rx="0"></rect><rect x="368" y="176" width="8" height="16" class="solid filled" rx="0"></rect><rect x="376" y="176" width="8" height="16" class="solid filled" rx="0"></rect><rect x="384" y="176" width="8" height="16" class="solid filled" rx="0"></rect><rect x="392" y="176" width="8" height="16" class="solid filled" rx="0"></rect><rect x="400" y="176" width="8" height="16" class="solid filled" rx="0"></rect><rect x="480" y="112" width="8" height="16" class="solid filled" rx="0"></rect><rect x="488" y="112" width="8" height="16" class="solid filled" rx="0"></rect><rect x="496" y="112" width="8" height="16" class="solid filled" rx="0"></rect><rect x="504" y="112" width="8" height="16" class="solid filled" rx="0"></rect><rect x="512" y="112" width="8" height="16" class="solid filled" rx="0"></rect><rect x="520" y="112" width="8" height="16" class="solid filled" rx="0"></rect><rect x="480" y="128" width="8" height="16" class="solid filled" rx="0"></rect><rect x="488" y="128" width="8" height="16" class="solid filled" rx="0"></rect><rect x="520" y="128" width="8" height="16" class="solid filled" rx="0"></rect><rect x="528" y="128" width="8" height="16" class="solid filled" rx="0"></rect><rect x="480" y="144" width="8" height="16" class="solid filled" rx="0"></rect><rect x="488" y="144" width="8" height="16" class="solid filled" rx="0"></rect><rect x="496" y="144" width="8" height="16" class="solid filled" rx="0"></rect><rect x="504" y="144" width="8" height="16" class="solid filled" rx="0"></rect><rect x="512" y="144" width="8" height="16" class="solid filled" rx="0"></rect><rect x="520" y="144" width="8" height="16" class="solid filled" rx="0"></rect><rect x="480" y="160" width="8" height="16" class="solid filled" rx="0"></rect><rect x="488" y="160" width="8" height="16" class="solid filled" rx="0"></rect><rect x="520" y="160" width="8" height="16" class="solid filled" rx="0"></rect><rect x="528" y="160" width="8" height="16" class="solid filled" rx="0"></rect><rect x="480" y="176" width="8" height="16" class="solid filled" rx="0"></rect><rect x="488" y="176" width="8" height="16" class="solid filled" rx="0"></rect><rect x="496" y="176" width="8" height="16" class="solid filled" rx="0"></rect><rect x="504" y="176" width="8" height="16" class="solid filled" rx="0"></rect><rect x="512" y="176" width="8" height="16" class="solid filled" rx="0"></rect><rect x="520" y="176" width="8" height="16" class="solid filled" rx="0"></rect><rect x="584" y="112" width="8" height="16" class="solid filled" rx="0"></rect><rect x="592" y="112" width="8" height="16" class="solid filled" rx="0"></rect><rect x="600" y="112" width="8" height="16" class="solid filled" rx="0"></rect><rect x="608" y="112" width="8" height="16" class="solid filled" rx="0"></rect><rect x="616" y="112" width="8" height="16" class="solid filled" rx="0"></rect><rect x="624" y="112" width="8" height="16" class="solid filled" rx="0"></rect><rect x="576" y="128" width="8" height="16" class="solid filled" rx="0"></rect><rect x="584" y="128" width="8" height="16" class="solid filled" rx="0"></rect><rect x="624" y="128" width="8" height="16" class="solid filled" rx="0"></rect><rect x="632" y="128" width="8" height="16" class="solid filled" rx="0"></rect><rect x="576" y="144" width="8" height="16" class="solid filled" rx="0"></rect><rect x="584" y="144" width="8" height="16" class="solid filled" rx="0"></rect><rect x="624" y="144" width="8" height="16" class="solid filled" rx="0"></rect><rect x="632" y="144" width="8" height="16" class="solid filled" rx="0"></rect><rect x="576" y="160" width="8" height="16" class="solid filled" rx="0"></rect><rect x="584" y="160" width="8" height="16" class="solid filled" rx="0"></rect><rect x="624" y="160" width="8" height="16" class="solid filled" rx="0"></rect><rect x="632" y="160" width="8" height="16" class="solid filled" rx="0"></rect><rect x="584" y="176" width="8" height="16" class="solid filled" rx="0"></rect><rect x="592" y="176" width="8" height="16" class="solid filled" rx="0"></rect><rect x="600" y="176" width="8" height="16" class="solid filled" rx="0"></rect><rect x="608" y="176" width="8" height="16" class="solid filled" rx="0"></rect><rect x="616" y="176" width="8" height="16" class="solid filled" rx="0"></rect><rect x="624" y="176" width="8" height="16" class="solid filled" rx="0"></rect><rect x="680" y="112" width="8" height="16" class="solid filled" rx="0"></rect><rect x="688" y="112" width="8" height="16" class="solid filled" rx="0"></rect><rect x="696" y="112" width="8" height="16" class="solid filled" rx="0"></rect><rect x="704" y="112" width="8" height="16" class="solid filled" rx="0"></rect><rect x="712" y="112" width="8" height="16" class="solid filled" rx="0"></rect><rect x="720" y="112" width="8" height="16" class="solid filled" rx="0"></rect><rect x="728" y="112" width="8" height="16" class="solid filled" rx="0"></rect><rect x="736" y="112" width="8" height="16" class="solid filled" rx="0"></rect><rect x="704" y="128" width="8" height="16" class="solid filled" rx="0"></rect><rect x="712" y="128" width="8" height="16" class="solid filled" rx="0"></rect><rect x="704" y="144" width="8" height="16" class="solid filled" rx="0"></rect><rect x="712" y="144" width="8" height="16" class="solid filled" rx="0"></rect><rect x="704" y="160" width="8" height="16" class="solid filled" rx="0"></rect><rect x="712" y="160" width="8" height="16" class="solid filled" rx="0"></rect><rect x="704" y="176" width="8" height="16" class="solid filled" rx="0"></rect><rect x="712" y="176" width="8" height="16" class="solid filled" rx="0"></rect><g><line x1="24" y1="8" x2="30" y2="8" class="solid"></line><line x1="30" y1="8" x2="30" y2="28" class="solid"></line><line x1="22" y1="28" x2="30" y2="28" class="solid"></line><line x1="22" y1="28" x2="22" y2="64" class="solid"></line></g><g><line x1="24" y1="12" x2="26" y2="12" class="solid"></line><line x1="26" y1="12" x2="26" y2="24" class="solid"></line><line x1="18" y1="24" x2="26" y2="24" class="solid"></line><line x1="18" y1="24" x2="18" y2="64" class="solid"></line></g><g><line x1="2" y1="64" x2="2" y2="76" class="solid"></line><line x1="2" y1="76" x2="8" y2="76" class="solid"></line></g><g><line x1="6" y1="64" x2="6" y2="72" class="solid"></line><line x1="6" y1="72" x2="8" y2="72" class="solid"></line></g><g><line x1="24" y1="72" x2="30" y2="72" class="solid"></line><line x1="30" y1="72" x2="30" y2="92" class="solid"></line><line x1="10" y1="80" x2="10" y2="92" class="solid"></line><line x1="10" y1="92" x2="30" y2="92" class="solid"></line></g><g><line x1="24" y1="76" x2="26" y2="76" class="solid"></line><line x1="26" y1="76" x2="26" y2="88" class="solid"></line><line x1="14" y1="80" x2="14" y2="88" class="solid"></line><line x1="14" y1="88" x2="26" y2="88" class="solid"></line></g><g><line x1="120" y1="8" x2="126" y2="8" class="solid"></line><line x1="126" y1="8" x2="126" y2="28" class="solid"></line><line x1="86" y1="28" x2="126" y2="28" class="solid"></line><line x1="86" y1="28" x2="86" y2="64" class="solid"></line></g><g><line x1="120" y1="12" x2="122" y2="12" class="solid"></line><line x1="122" y1="12" x2="122" y2="24" class="solid"></line><line x1="82" y1="24" x2="122" y2="24" class="solid"></line><line x1="82" y1="24" x2="82" y2="64" class="solid"></line></g><g><line x1="128" y1="40" x2="134" y2="40" class="solid"></line><line x1="134" y1="40" x2="134" y2="76" class="solid"></line><line x1="126" y1="76" x2="134" y2="76" class="solid"></line><line x1="126" y1="76" x2="126" y2="92" class="solid"></line><line x1="74" y1="80" x2="74" y2="92" class="solid"></line><line x1="74" y1="92" x2="126" y2="92" class="solid"></line></g><g><line x1="128" y1="44" x2="130" y2="44" class="solid"></line><line x1="130" y1="44" x2="130" y2="72" class="solid"></line><line x1="122" y1="72" x2="130" y2="72" class="solid"></line><line x1="122" y1="72" x2="122" y2="88" class="solid"></line><line x1="78" y1="80" x2="78" y2="88" class="solid"></line><line x1="78" y1="88" x2="122" y2="88" class="solid"></line></g><g><line x1="66" y1="64" x2="66" y2="76" class="solid"></line><line x1="66" y1="76" x2="72" y2="76" class="solid"></line></g><g><line x1="70" y1="64" x2="70" y2="72" class="solid"></line><line x1="70" y1="72" x2="72" y2="72" class="solid"></line></g><g><line x1="184" y1="8" x2="190" y2="8" class="solid"></line><line x1="190" y1="8" x2="190" y2="16" class="solid"></line></g><g><line x1="184" y1="12" x2="186" y2="12" class="solid"></line><line x1="186" y1="12" x2="186" y2="16" class="solid"></line></g><g><line x1="170" y1="16" x2="170" y2="28" class="solid"></line><line x1="170" y1="28" x2="176" y2="28" class="solid"></line></g><g><line x1="174" y1="16" x2="174" y2="24" class="solid"></line><line x1="174" y1="24" x2="176" y2="24" class="solid"></line></g><g><line x1="192" y1="24" x2="198" y2="24" class="solid"></line><line x1="198" y1="24" x2="198" y2="76" class="solid"></line><line x1="190" y1="76" x2="198" y2="76" class="solid"></line><line x1="190" y1="76" x2="190" y2="92" class="solid"></line><line x1="170" y1="80" x2="170" y2="92" class="solid"></line><line x1="170" y1="92" x2="190" y2="92" class="solid"></line></g><g><line x1="192" y1="28" x2="194" y2="28" class="solid"></line><line x1="194" y1="28" x2="194" y2="72" class="solid"></line><line x1="186" y1="72" x2="194" y2="72" class="solid"></line><line x1="186" y1="72" x2="186" y2="88" class="solid"></line><line x1="174" y1="80" x2="174" y2="88" class="solid"></line><line x1="174" y1="88" x2="186" y2="88" class="solid"></line></g><g><line x1="328" y1="8" x2="334" y2="8" class="solid"></line><line x1="334" y1="8" x2="334" y2="92" class="solid"></line><line x1="314" y1="80" x2="314" y2="92" class="solid"></line><line x1="314" y1="92" x2="334" y2="92" class="solid"></line></g><g><line x1="328" y1="12" x2="330" y2="12" class="solid"></line><line x1="330" y1="12" x2="330" y2="88" class="solid"></line><line x1="318" y1="80" x2="318" y2="88" class="solid"></line><line x1="318" y1="88" x2="330" y2="88" class="solid"></line></g><g><line x1="416" y1="8" x2="422" y2="8" class="solid"></line><line x1="422" y1="8" x2="422" y2="16" class="solid"></line></g><g><line x1="416" y1="12" x2="418" y2="12" class="solid"></line><line x1="418" y1="12" x2="418" y2="16" class="solid"></line></g><g><line x1="386" y1="24" x2="408" y2="24" class="solid"></line><line x1="386" y1="24" x2="386" y2="64" class="solid"></line></g><g><line x1="390" y1="28" x2="408" y2="28" class="solid"></line><line x1="390" y1="28" x2="390" y2="64" class="solid"></line></g><g><line x1="424" y1="24" x2="430" y2="24" class="solid"></line><line x1="430" y1="24" x2="430" y2="76" class="solid"></line><line x1="422" y1="76" x2="430" y2="76" class="solid"></line><line x1="422" y1="76" x2="422" y2="92" class="solid"></line><line x1="370" y1="80" x2="370" y2="92" class="solid"></line><line x1="370" y1="92" x2="422" y2="92" class="solid"></line></g><g><line x1="424" y1="28" x2="426" y2="28" class="solid"></line><line x1="426" y1="28" x2="426" y2="72" class="solid"></line><line x1="418" y1="72" x2="426" y2="72" class="solid"></line><line x1="418" y1="72" x2="418" y2="88" class="solid"></line><line x1="374" y1="80" x2="374" y2="88" class="solid"></line><line x1="374" y1="88" x2="418" y2="88" class="solid"></line></g><g><line x1="480" y1="8" x2="486" y2="8" class="solid"></line><line x1="486" y1="8" x2="486" y2="64" class="solid"></line></g><g><line x1="480" y1="12" x2="482" y2="12" class="solid"></line><line x1="482" y1="12" x2="482" y2="64" class="solid"></line></g><g><line x1="520" y1="72" x2="526" y2="72" class="solid"></line><line x1="526" y1="72" x2="526" y2="92" class="solid"></line><line x1="466" y1="80" x2="466" y2="92" class="solid"></line><line x1="466" y1="92" x2="526" y2="92" class="solid"></line></g><g><line x1="520" y1="76" x2="522" y2="76" class="solid"></line><line x1="522" y1="76" x2="522" y2="88" class="solid"></line><line x1="470" y1="80" x2="470" y2="88" class="solid"></line><line x1="470" y1="88" x2="522" y2="88" class="solid"></line></g><g><line x1="616" y1="8" x2="622" y2="8" class="solid"></line><line x1="622" y1="8" x2="622" y2="28" class="solid"></line><line x1="582" y1="28" x2="622" y2="28" class="solid"></line><line x1="582" y1="28" x2="582" y2="32" class="solid"></line></g><g><line x1="616" y1="12" x2="618" y2="12" class="solid"></line><line x1="618" y1="12" x2="618" y2="24" class="solid"></line><line x1="578" y1="24" x2="618" y2="24" class="solid"></line><line x1="578" y1="24" x2="578" y2="32" class="solid"></line></g><g><line x1="600" y1="40" x2="606" y2="40" class="solid"></line><line x1="606" y1="40" x2="606" y2="60" class="solid"></line><line x1="582" y1="60" x2="606" y2="60" class="solid"></line><line x1="582" y1="60" x2="582" y2="64" class="solid"></line></g><g><line x1="600" y1="44" x2="602" y2="44" class="solid"></line><line x1="602" y1="44" x2="602" y2="56" class="solid"></line><line x1="578" y1="56" x2="602" y2="56" class="solid"></line><line x1="578" y1="56" x2="578" y2="64" class="solid"></line></g><g><line x1="616" y1="72" x2="622" y2="72" class="solid"></line><line x1="622" y1="72" x2="622" y2="92" class="solid"></line><line x1="562" y1="80" x2="562" y2="92" class="solid"></line><line x1="562" y1="92" x2="622" y2="92" class="solid"></line></g><g><line x1="616" y1="76" x2="618" y2="76" class="solid"></line><line x1="618" y1="76" x2="618" y2="88" class="solid"></line><line x1="566" y1="80" x2="566" y2="88" class="solid"></line><line x1="566" y1="88" x2="618" y2="88" class="solid"></line></g><g><line x1="272" y1="40" x2="278" y2="40" class="solid"></line><line x1="278" y1="40" x2="278" y2="60" class="solid"></line><line x1="234" y1="48" x2="234" y2="60" class="solid"></line><line x1="234" y1="60" x2="278" y2="60" class="solid"></line></g><g><line x1="272" y1="44" x2="274" y2="44" class="solid"></line><line x1="274" y1="44" x2="274" y2="56" class="solid"></line><line x1="238" y1="48" x2="238" y2="56" class="solid"></line><line x1="238" y1="56" x2="274" y2="56" class="solid"></line></g><g><line x1="16" y1="120" x2="22" y2="120" class="solid"></line><line x1="22" y1="120" x2="22" y2="176" class="solid"></line></g><g><line x1="16" y1="124" x2="18" y2="124" class="solid"></line><line x1="18" y1="124" x2="18" y2="176" class="solid"></line></g><g><line x1="56" y1="184" x2="62" y2="184" class="solid"></line><line x1="62" y1="184" x2="62" y2="204" class="solid"></line><line x1="2" y1="192" x2="2" y2="204" class="solid"></line><line x1="2" y1="204" x2="62" y2="204" class="solid"></line></g><g><line x1="56" y1="188" x2="58" y2="188" class="solid"></line><line x1="58" y1="188" x2="58" y2="200" class="solid"></line><line x1="6" y1="192" x2="6" y2="200" class="solid"></line><line x1="6" y1="200" x2="58" y2="200" class="solid"></line></g><g><line x1="112" y1="120" x2="118" y2="120" class="solid"></line><line x1="118" y1="120" x2="118" y2="128" class="solid"></line></g><g><line x1="112" y1="124" x2="114" y2="124" class="solid"></line><line x1="114" y1="124" x2="114" y2="128" class="solid"></line></g><g><line x1="160" y1="120" x2="166" y2="120" class="solid"></line><line x1="166" y1="120" x2="166" y2="140" class="solid"></line><line x1="158" y1="140" x2="166" y2="140" class="solid"></line><line x1="158" y1="140" x2="158" y2="156" class="solid"></line><line x1="150" y1="156" x2="158" y2="156" class="solid"></line><line x1="150" y1="156" x2="150" y2="172" class="solid"></line><line x1="142" y1="172" x2="150" y2="172" class="solid"></line><line x1="142" y1="172" x2="142" y2="204" class="solid"></line><line x1="122" y1="192" x2="122" y2="204" class="solid"></line><line x1="122" y1="204" x2="142" y2="204" class="solid"></line></g><g><line x1="160" y1="124" x2="162" y2="124" class="solid"></line><line x1="162" y1="124" x2="162" y2="136" class="solid"></line><line x1="154" y1="136" x2="162" y2="136" class="solid"></line><line x1="154" y1="136" x2="154" y2="152" class="solid"></line><line x1="146" y1="152" x2="154" y2="152" class="solid"></line><line x1="146" y1="152" x2="146" y2="168" class="solid"></line><line x1="138" y1="168" x2="146" y2="168" class="solid"></line><line x1="138" y1="168" x2="138" y2="200" class="solid"></line><line x1="126" y1="192" x2="126" y2="200" class="solid"></line><line x1="126" y1="200" x2="138" y2="200" class="solid"></line></g><g><line x1="98" y1="128" x2="98" y2="140" class="solid"></line><line x1="98" y1="140" x2="104" y2="140" class="solid"></line></g><g><line x1="102" y1="128" x2="102" y2="136" class="solid"></line><line x1="102" y1="136" x2="104" y2="136" class="solid"></line></g><g><line x1="120" y1="136" x2="126" y2="136" class="solid"></line><line x1="126" y1="136" x2="126" y2="144" class="solid"></line></g><g><line x1="120" y1="140" x2="122" y2="140" class="solid"></line><line x1="122" y1="140" x2="122" y2="144" class="solid"></line></g><g><line x1="106" y1="144" x2="106" y2="156" class="solid"></line><line x1="106" y1="156" x2="112" y2="156" class="solid"></line></g><g><line x1="110" y1="144" x2="110" y2="152" class="solid"></line><line x1="110" y1="152" x2="112" y2="152" class="solid"></line></g><g><line x1="114" y1="160" x2="114" y2="172" class="solid"></line><line x1="114" y1="172" x2="120" y2="172" class="solid"></line></g><g><line x1="118" y1="160" x2="118" y2="168" class="solid"></line><line x1="118" y1="168" x2="120" y2="168" class="solid"></line></g><g><line x1="248" y1="120" x2="254" y2="120" class="solid"></line><line x1="254" y1="120" x2="254" y2="128" class="solid"></line></g><g><line x1="248" y1="124" x2="250" y2="124" class="solid"></line><line x1="250" y1="124" x2="250" y2="128" class="solid"></line></g><g><line x1="218" y1="136" x2="240" y2="136" class="solid"></line><line x1="218" y1="136" x2="218" y2="144" class="solid"></line></g><g><line x1="222" y1="140" x2="240" y2="140" class="solid"></line><line x1="222" y1="140" x2="222" y2="144" class="solid"></line></g><g><line x1="256" y1="136" x2="262" y2="136" class="solid"></line><line x1="262" y1="136" x2="262" y2="156" class="solid"></line><line x1="254" y1="156" x2="262" y2="156" class="solid"></line><line x1="254" y1="156" x2="254" y2="160" class="solid"></line></g><g><line x1="256" y1="140" x2="258" y2="140" class="solid"></line><line x1="258" y1="140" x2="258" y2="152" class="solid"></line><line x1="250" y1="152" x2="258" y2="152" class="solid"></line><line x1="250" y1="152" x2="250" y2="160" class="solid"></line></g><g><line x1="218" y1="168" x2="240" y2="168" class="solid"></line><line x1="218" y1="168" x2="218" y2="200" class="solid"></line><line x1="206" y1="192" x2="206" y2="200" class="solid"></line><line x1="206" y1="200" x2="218" y2="200" class="solid"></line></g><g><line x1="222" y1="172" x2="240" y2="172" class="solid"></line><line x1="222" y1="172" x2="222" y2="204" class="solid"></line><line x1="202" y1="192" x2="202" y2="204" class="solid"></line><line x1="202" y1="204" x2="222" y2="204" class="solid"></line></g><g><line x1="256" y1="168" x2="262" y2="168" class="solid"></line><line x1="262" y1="168" x2="262" y2="204" class="solid"></line><line x1="242" y1="192" x2="242" y2="204" class="solid"></line><line x1="242" y1="204" x2="262" y2="204" class="solid"></line></g><g><line x1="256" y1="172" x2="258" y2="172" class="solid"></line><line x1="258" y1="172" x2="258" y2="200" class="solid"></line><line x1="246" y1="192" x2="246" y2="200" class="solid"></line><line x1="246" y1="200" x2="258" y2="200" class="solid"></line></g><g><line x1="312" y1="120" x2="318" y2="120" class="solid"></line><line x1="318" y1="120" x2="318" y2="204" class="solid"></line><line x1="298" y1="192" x2="298" y2="204" class="solid"></line><line x1="298" y1="204" x2="318" y2="204" class="solid"></line></g><g><line x1="312" y1="124" x2="314" y2="124" class="solid"></line><line x1="314" y1="124" x2="314" y2="200" class="solid"></line><line x1="302" y1="192" x2="302" y2="200" class="solid"></line><line x1="302" y1="200" x2="314" y2="200" class="solid"></line></g><g><line x1="408" y1="120" x2="414" y2="120" class="solid"></line><line x1="414" y1="120" x2="414" y2="140" class="solid"></line><line x1="374" y1="140" x2="414" y2="140" class="solid"></line><line x1="374" y1="140" x2="374" y2="176" class="solid"></line></g><g><line x1="408" y1="124" x2="410" y2="124" class="solid"></line><line x1="410" y1="124" x2="410" y2="136" class="solid"></line><line x1="370" y1="136" x2="410" y2="136" class="solid"></line><line x1="370" y1="136" x2="370" y2="176" class="solid"></line></g><g><line x1="354" y1="176" x2="354" y2="188" class="solid"></line><line x1="354" y1="188" x2="360" y2="188" class="solid"></line></g><g><line x1="358" y1="176" x2="358" y2="184" class="solid"></line><line x1="358" y1="184" x2="360" y2="184" class="solid"></line></g><g><line x1="408" y1="184" x2="414" y2="184" class="solid"></line><line x1="414" y1="184" x2="414" y2="204" class="solid"></line><line x1="362" y1="192" x2="362" y2="204" class="solid"></line><line x1="362" y1="204" x2="414" y2="204" class="solid"></line></g><g><line x1="408" y1="188" x2="410" y2="188" class="solid"></line><line x1="410" y1="188" x2="410" y2="200" class="solid"></line><line x1="366" y1="192" x2="366" y2="200" class="solid"></line><line x1="366" y1="200" x2="410" y2="200" class="solid"></line></g><g><line x1="528" y1="120" x2="534" y2="120" class="solid"></line><line x1="534" y1="120" x2="534" y2="128" class="solid"></line></g><g><line x1="528" y1="124" x2="530" y2="124" class="solid"></line><line x1="530" y1="124" x2="530" y2="128" class="solid"></line></g><g><line x1="498" y1="136" x2="520" y2="136" class="solid"></line><line x1="498" y1="136" x2="498" y2="144" class="solid"></line></g><g><line x1="502" y1="140" x2="520" y2="140" class="solid"></line><line x1="502" y1="140" x2="502" y2="144" class="solid"></line></g><g><line x1="536" y1="136" x2="542" y2="136" class="solid"></line><line x1="542" y1="136" x2="542" y2="156" class="solid"></line><line x1="534" y1="156" x2="542" y2="156" class="solid"></line><line x1="534" y1="156" x2="534" y2="160" class="solid"></line></g><g><line x1="536" y1="140" x2="538" y2="140" class="solid"></line><line x1="538" y1="140" x2="538" y2="152" class="solid"></line><line x1="530" y1="152" x2="538" y2="152" class="solid"></line><line x1="530" y1="152" x2="530" y2="160" class="solid"></line></g><g><line x1="498" y1="168" x2="520" y2="168" class="solid"></line><line x1="498" y1="168" x2="498" y2="176" class="solid"></line></g><g><line x1="502" y1="172" x2="520" y2="172" class="solid"></line><line x1="502" y1="172" x2="502" y2="176" class="solid"></line></g><g><line x1="536" y1="168" x2="542" y2="168" class="solid"></line><line x1="542" y1="168" x2="542" y2="188" class="solid"></line><line x1="534" y1="188" x2="542" y2="188" class="solid"></line><line x1="534" y1="188" x2="534" y2="204" class="solid"></line><line x1="482" y1="192" x2="482" y2="204" class="solid"></line><line x1="482" y1="204" x2="534" y2="204" class="solid"></line></g><g><line x1="536" y1="172" x2="538" y2="172" class="solid"></line><line x1="538" y1="172" x2="538" y2="184" class="solid"></line><line x1="530" y1="184" x2="538" y2="184" class="solid"></line><line x1="530" y1="184" x2="530" y2="200" class="solid"></line><line x1="486" y1="192" x2="486" y2="200" class="solid"></line><line x1="486" y1="200" x2="530" y2="200" class="solid"></line></g><g><line x1="632" y1="120" x2="638" y2="120" class="solid"></line><line x1="638" y1="120" x2="638" y2="128" class="solid"></line></g><g><line x1="632" y1="124" x2="634" y2="124" class="solid"></line><line x1="634" y1="124" x2="634" y2="128" class="solid"></line></g><g><line x1="594" y1="136" x2="624" y2="136" class="solid"></line><line x1="594" y1="136" x2="594" y2="176" class="solid"></line></g><g><line x1="598" y1="140" x2="624" y2="140" class="solid"></line><line x1="598" y1="140" x2="598" y2="176" class="solid"></line></g><g><line x1="640" y1="136" x2="646" y2="136" class="solid"></line><line x1="646" y1="136" x2="646" y2="188" class="solid"></line><line x1="638" y1="188" x2="646" y2="188" class="solid"></line><line x1="638" y1="188" x2="638" y2="204" class="solid"></line><line x1="586" y1="192" x2="586" y2="204" class="solid"></line><line x1="586" y1="204" x2="638" y2="204" class="solid"></line></g><g><line x1="640" y1="140" x2="642" y2="140" class="solid"></line><line x1="642" y1="140" x2="642" y2="184" class="solid"></line><line x1="634" y1="184" x2="642" y2="184" class="solid"></line><line x1="634" y1="184" x2="634" y2="200" class="solid"></line><line x1="590" y1="192" x2="590" y2="200" class="solid"></line><line x1="590" y1="200" x2="634" y2="200" class="solid"></line></g><g><line x1="578" y1="176" x2="578" y2="188" class="solid"></line><line x1="578" y1="188" x2="584" y2="188" class="solid"></line></g><g><line x1="582" y1="176" x2="582" y2="184" class="solid"></line><line x1="582" y1="184" x2="584" y2="184" class="solid"></line></g><g><line x1="744" y1="120" x2="750" y2="120" class="solid"></line><line x1="750" y1="120" x2="750" y2="140" class="solid"></line><line x1="726" y1="140" x2="750" y2="140" class="solid"></line><line x1="726" y1="140" x2="726" y2="204" class="solid"></line><line x1="706" y1="192" x2="706" y2="204" class="solid"></line><line x1="706" y1="204" x2="726" y2="204" class="solid"></line></g><g><line x1="744" y1="124" x2="746" y2="124" class="solid"></line><line x1="746" y1="124" x2="746" y2="136" class="solid"></line><line x1="722" y1="136" x2="746" y2="136" class="solid"></line><line x1="722" y1="136" x2="722" y2="200" class="solid"></line><line x1="710" y1="192" x2="710" y2="200" class="solid"></line><line x1="710" y1="200" x2="722" y2="200" class="solid"></line></g><g><line x1="682" y1="128" x2="682" y2="140" class="solid"></line><line x1="682" y1="140" x2="704" y2="140" class="solid"></line></g><g><line x1="686" y1="128" x2="686" y2="136" class="solid"></line><line x1="686" y1="136" x2="704" y2="136" class="solid"></line></g></svg>