<svg xmlns="http://www.w3.org/2000/svg" version="1.1" height="224" width="760" viewBox="0 0 760 224" class="diagram" text-anchor="middle" font-family="monospace" font-size="13px">
<path d="M 26,48 L 26,64" fill="none" stroke="white"/><path d="M 22,48 L 22,64" fill="none" stroke="white"/>
<path d="M 26,144 L 26,176" fill="none" stroke="white"/><path d="M 22,144 L 22,176" fill="none" stroke="white"/>
<path d="M 90,48 L 90,64" fill="none" stroke="white"/><path d="M 86,48 L 86,64" fill="none" stroke="white"/>
<path d="M 202,48 L 202,64" fill="none" stroke="white"/><path d="M 198,48 L 198,64" fill="none" stroke="white"/>
<path d="M 322,144 L 322,192" fill="none" stroke="white"/><path d="M 318,144 L 318,192" fill="none" stroke="white"/>
<path d="M 338,32 L 338,80" fill="none" stroke="white"/><path d="M 334,32 L 334,80" fill="none" stroke="white"/>
<path d="M 378,160 L 378,176" fill="none" stroke="white"/><path d="M 374,160 L 374,176" fill="none" stroke="white"/>
<path d="M 394,48 L 394,64" fill="none" stroke="white"/><path d="M 390,48 L 390,64" fill="none" stroke="white"/>
<path d="M 434,48 L 434,64" fill="none" stroke="white"/><path d="M 430,48 L 430,64" fill="none" stroke="white"/>
<path d="M 490,32 L 490,64" fill="none" stroke="white"/><path d="M 486,32 L 486,64" fill="none" stroke="white"/>
<path d="M 602,160 L 602,176" fill="none" stroke="white"/><path d="M 598,160 L 598,176" fill="none" stroke="white"/>
<path d="M 650,160 L 650,176" fill="none" stroke="white"/><path d="M 646,160 L 646,176" fill="none" stroke="white"/>
<path d="M 730,160 L 730,192" fill="none" stroke="white"/><path d="M 726,160 L 726,192" fill="none" stroke="white"/>
<path d="M 96,30 L 120,30" fill="none" stroke="white"/><path d="M 96,34 L 120,34" fill="none" stroke="white"/>
<path d="M 592,30 L 616,30" fill="none" stroke="white"/><path d="M 592,34 L 616,34" fill="none" stroke="white"/>
<path d="M 248,62 L 272,62" fill="none" stroke="white"/><path d="M 248,66 L 272,66" fill="none" stroke="white"/>
<path d="M 88,94 L 120,94" fill="none" stroke="white"/><path d="M 88,98 L 120,98" fill="none" stroke="white"/>
<path d="M 384,94 L 416,94" fill="none" stroke="white"/><path d="M 384,98 L 416,98" fill="none" stroke="white"/>
<path d="M 480,94 L 520,94" fill="none" stroke="white"/><path d="M 480,98 L 520,98" fill="none" stroke="white"/>
<path d="M 576,94 L 616,94" fill="none" stroke="white"/><path d="M 576,98 L 616,98" fill="none" stroke="white"/>
<path d="M 384,142 L 408,142" fill="none" stroke="white"/><path d="M 384,146 L 408,146" fill="none" stroke="white"/>
<path d="M 608,142 L 624,142" fill="none" stroke="white"/><path d="M 608,146 L 624,146" fill="none" stroke="white"/>
<path d="M 16,206 L 56,206" fill="none" stroke="white"/><path d="M 16,210 L 56,210" fill="none" stroke="white"/>
<path d="M 376,206 L 408,206" fill="none" stroke="white"/><path d="M 376,210 L 408,210" fill="none" stroke="white"/>
<path d="M 496,206 L 528,206" fill="none" stroke="white"/><path d="M 496,210 L 528,210" fill="none" stroke="white"/>
<path d="M 600,206 L 632,206" fill="none" stroke="white"/><path d="M 600,210 L 632,210" fill="none" stroke="white"/>
<rect class="gray" x="740" y="120" width="8" height="16" fill="rgb(255,255,255)"/>
<rect class="gray" x="732" y="120" width="8" height="16" fill="rgb(255,255,255)"/>
<rect class="gray" x="724" y="120" width="8" height="16" fill="rgb(255,255,255)"/>
<rect class="gray" x="716" y="184" width="8" height="16" fill="rgb(255,255,255)"/>
<rect class="gray" x="716" y="168" width="8" height="16" fill="rgb(255,255,255)"/>
<rect class="gray" x="716" y="152" width="8" height="16" fill="rgb(255,255,255)"/>
<rect class="gray" x="716" y="136" width="8" height="16" fill="rgb(255,255,255)"/>
<rect class="gray" x="716" y="120" width="8" height="16" fill="rgb(255,255,255)"/>
<rect class="gray" x="708" y="184" width="8" height="16" fill="rgb(255,255,255)"/>
<rect class="gray" x="708" y="168" width="8" height="16" fill="rgb(255,255,255)"/>
<rect class="gray" x="708" y="152" width="8" height="16" fill="rgb(255,255,255)"/>
<rect class="gray" x="708" y="136" width="8" height="16" fill="rgb(255,255,255)"/>
<rect class="gray" x="708" y="120" width="8" height="16" fill="rgb(255,255,255)"/>
<rect class="gray" x="700" y="120" width="8" height="16" fill="rgb(255,255,255)"/>
<rect class="gray" x="692" y="120" width="8" height="16" fill="rgb(255,255,255)"/>
<rect class="gray" x="684" y="120" width="8" height="16" fill="rgb(255,255,255)"/>
<rect class="gray" x="636" y="168" width="8" height="16" fill="rgb(255,255,255)"/>
<rect class="gray" x="636" y="152" width="8" height="16" fill="rgb(255,255,255)"/>
<rect class="gray" x="636" y="136" width="8" height="16" fill="rgb(255,255,255)"/>
<rect class="gray" x="628" y="184" width="8" height="16" fill="rgb(255,255,255)"/>
<rect class="gray" x="628" y="168" width="8" height="16" fill="rgb(255,255,255)"/>
<rect class="gray" x="628" y="152" width="8" height="16" fill="rgb(255,255,255)"/>
<rect class="gray" x="628" y="136" width="8" height="16" fill="rgb(255,255,255)"/>
<rect class="gray" x="628" y="120" width="8" height="16" fill="rgb(255,255,255)"/>
<rect class="gray" x="620" y="184" width="8" height="16" fill="rgb(255,255,255)"/>
<rect class="gray" x="620" y="120" width="8" height="16" fill="rgb(255,255,255)"/>
<rect class="gray" x="612" y="184" width="8" height="16" fill="rgb(255,255,255)"/>
<rect class="gray" x="612" y="120" width="8" height="16" fill="rgb(255,255,255)"/>
<rect class="gray" x="612" y="72" width="8" height="16" fill="rgb(255,255,255)"/>
<rect class="gray" x="612" y="8" width="8" height="16" fill="rgb(255,255,255)"/>
<rect class="gray" x="604" y="184" width="8" height="16" fill="rgb(255,255,255)"/>
<rect class="gray" x="604" y="120" width="8" height="16" fill="rgb(255,255,255)"/>
<rect class="gray" x="604" y="72" width="8" height="16" fill="rgb(255,255,255)"/>
<rect class="gray" x="604" y="8" width="8" height="16" fill="rgb(255,255,255)"/>
<rect class="gray" x="596" y="184" width="8" height="16" fill="rgb(255,255,255)"/>
<rect class="gray" x="596" y="120" width="8" height="16" fill="rgb(255,255,255)"/>
<rect class="gray" x="596" y="72" width="8" height="16" fill="rgb(255,255,255)"/>
<rect class="gray" x="596" y="40" width="8" height="16" fill="rgb(255,255,255)"/>
<rect class="gray" x="596" y="8" width="8" height="16" fill="rgb(255,255,255)"/>
<rect class="gray" x="588" y="184" width="8" height="16" fill="rgb(255,255,255)"/>
<rect class="gray" x="588" y="168" width="8" height="16" fill="rgb(255,255,255)"/>
<rect class="gray" x="588" y="152" width="8" height="16" fill="rgb(255,255,255)"/>
<rect class="gray" x="588" y="136" width="8" height="16" fill="rgb(255,255,255)"/>
<rect class="gray" x="588" y="120" width="8" height="16" fill="rgb(255,255,255)"/>
<rect class="gray" x="588" y="72" width="8" height="16" fill="rgb(255,255,255)"/>
<rect class="gray" x="588" y="40" width="8" height="16" fill="rgb(255,255,255)"/>
<rect class="gray" x="588" y="8" width="8" height="16" fill="rgb(255,255,255)"/>
<rect class="gray" x="580" y="168" width="8" height="16" fill="rgb(255,255,255)"/>
<rect class="gray" x="580" y="152" width="8" height="16" fill="rgb(255,255,255)"/>
<rect class="gray" x="580" y="136" width="8" height="16" fill="rgb(255,255,255)"/>
<rect class="gray" x="580" y="72" width="8" height="16" fill="rgb(255,255,255)"/>
<rect class="gray" x="580" y="40" width="8" height="16" fill="rgb(255,255,255)"/>
<rect class="gray" x="580" y="8" width="8" height="16" fill="rgb(255,255,255)"/>
<rect class="gray" x="572" y="72" width="8" height="16" fill="rgb(255,255,255)"/>
<rect class="gray" x="572" y="56" width="8" height="16" fill="rgb(255,255,255)"/>
<rect class="gray" x="572" y="40" width="8" height="16" fill="rgb(255,255,255)"/>
<rect class="gray" x="572" y="24" width="8" height="16" fill="rgb(255,255,255)"/>
<rect class="gray" x="572" y="8" width="8" height="16" fill="rgb(255,255,255)"/>
<rect class="gray" x="564" y="72" width="8" height="16" fill="rgb(255,255,255)"/>
<rect class="gray" x="564" y="56" width="8" height="16" fill="rgb(255,255,255)"/>
<rect class="gray" x="564" y="40" width="8" height="16" fill="rgb(255,255,255)"/>
<rect class="gray" x="564" y="24" width="8" height="16" fill="rgb(255,255,255)"/>
<rect class="gray" x="564" y="8" width="8" height="16" fill="rgb(255,255,255)"/>
<rect class="gray" x="532" y="168" width="8" height="16" fill="rgb(255,255,255)"/>
<rect class="gray" x="532" y="136" width="8" height="16" fill="rgb(255,255,255)"/>
<rect class="gray" x="524" y="184" width="8" height="16" fill="rgb(255,255,255)"/>
<rect class="gray" x="524" y="168" width="8" height="16" fill="rgb(255,255,255)"/>
<rect class="gray" x="524" y="152" width="8" height="16" fill="rgb(255,255,255)"/>
<rect class="gray" x="524" y="136" width="8" height="16" fill="rgb(255,255,255)"/>
<rect class="gray" x="524" y="120" width="8" height="16" fill="rgb(255,255,255)"/>
<rect class="gray" x="516" y="184" width="8" height="16" fill="rgb(255,255,255)"/>
<rect class="gray" x="516" y="152" width="8" height="16" fill="rgb(255,255,255)"/>
<rect class="gray" x="516" y="120" width="8" height="16" fill="rgb(255,255,255)"/>
<rect class="gray" x="516" y="72" width="8" height="16" fill="rgb(255,255,255)"/>
<rect class="gray" x="508" y="184" width="8" height="16" fill="rgb(255,255,255)"/>
<rect class="gray" x="508" y="152" width="8" height="16" fill="rgb(255,255,255)"/>
<rect class="gray" x="508" y="120" width="8" height="16" fill="rgb(255,255,255)"/>
<rect class="gray" x="508" y="72" width="8" height="16" fill="rgb(255,255,255)"/>
<rect class="gray" x="500" y="184" width="8" height="16" fill="rgb(255,255,255)"/>
<rect class="gray" x="500" y="152" width="8" height="16" fill="rgb(255,255,255)"/>
<rect class="gray" x="500" y="120" width="8" height="16" fill="rgb(255,255,255)"/>
<rect class="gray" x="500" y="72" width="8" height="16" fill="rgb(255,255,255)"/>
<rect class="gray" x="492" y="184" width="8" height="16" fill="rgb(255,255,255)"/>
<rect class="gray" x="492" y="168" width="8" height="16" fill="rgb(255,255,255)"/>
<rect class="gray" x="492" y="152" width="8" height="16" fill="rgb(255,255,255)"/>
<rect class="gray" x="492" y="136" width="8" height="16" fill="rgb(255,255,255)"/>
<rect class="gray" x="492" y="120" width="8" height="16" fill="rgb(255,255,255)"/>
<rect class="gray" x="492" y="72" width="8" height="16" fill="rgb(255,255,255)"/>
<rect class="gray" x="484" y="184" width="8" height="16" fill="rgb(255,255,255)"/>
<rect class="gray" x="484" y="168" width="8" height="16" fill="rgb(255,255,255)"/>
<rect class="gray" x="484" y="152" width="8" height="16" fill="rgb(255,255,255)"/>
<rect class="gray" x="484" y="136" width="8" height="16" fill="rgb(255,255,255)"/>
<rect class="gray" x="484" y="120" width="8" height="16" fill="rgb(255,255,255)"/>
<rect class="gray" x="484" y="72" width="8" height="16" fill="rgb(255,255,255)"/>
<rect class="gray" x="476" y="72" width="8" height="16" fill="rgb(255,255,255)"/>
<rect class="gray" x="476" y="56" width="8" height="16" fill="rgb(255,255,255)"/>
<rect class="gray" x="476" y="40" width="8" height="16" fill="rgb(255,255,255)"/>
<rect class="gray" x="476" y="24" width="8" height="16" fill="rgb(255,255,255)"/>
<rect class="gray" x="476" y="8" width="8" height="16" fill="rgb(255,255,255)"/>
<rect class="gray" x="468" y="72" width="8" height="16" fill="rgb(255,255,255)"/>
<rect class="gray" x="468" y="56" width="8" height="16" fill="rgb(255,255,255)"/>
<rect class="gray" x="468" y="40" width="8" height="16" fill="rgb(255,255,255)"/>
<rect class="gray" x="468" y="24" width="8" height="16" fill="rgb(255,255,255)"/>
<rect class="gray" x="468" y="8" width="8" height="16" fill="rgb(255,255,255)"/>
<rect class="gray" x="420" y="56" width="8" height="16" fill="rgb(255,255,255)"/>
<rect class="gray" x="420" y="40" width="8" height="16" fill="rgb(255,255,255)"/>
<rect class="gray" x="420" y="24" width="8" height="16" fill="rgb(255,255,255)"/>
<rect class="gray" x="412" y="72" width="8" height="16" fill="rgb(255,255,255)"/>
<rect class="gray" x="412" y="56" width="8" height="16" fill="rgb(255,255,255)"/>
<rect class="gray" x="412" y="40" width="8" height="16" fill="rgb(255,255,255)"/>
<rect class="gray" x="412" y="24" width="8" height="16" fill="rgb(255,255,255)"/>
<rect class="gray" x="412" y="8" width="8" height="16" fill="rgb(255,255,255)"/>
<rect class="gray" x="404" y="184" width="8" height="16" fill="rgb(255,255,255)"/>
<rect class="gray" x="404" y="120" width="8" height="16" fill="rgb(255,255,255)"/>
<rect class="gray" x="404" y="72" width="8" height="16" fill="rgb(255,255,255)"/>
<rect class="gray" x="404" y="8" width="8" height="16" fill="rgb(255,255,255)"/>
<rect class="gray" x="396" y="184" width="8" height="16" fill="rgb(255,255,255)"/>
<rect class="gray" x="396" y="120" width="8" height="16" fill="rgb(255,255,255)"/>
<rect class="gray" x="396" y="72" width="8" height="16" fill="rgb(255,255,255)"/>
<rect class="gray" x="396" y="8" width="8" height="16" fill="rgb(255,255,255)"/>
<rect class="gray" x="388" y="184" width="8" height="16" fill="rgb(255,255,255)"/>
<rect class="gray" x="388" y="120" width="8" height="16" fill="rgb(255,255,255)"/>
<rect class="gray" x="388" y="72" width="8" height="16" fill="rgb(255,255,255)"/>
<rect class="gray" x="388" y="8" width="8" height="16" fill="rgb(255,255,255)"/>
<rect class="gray" x="380" y="184" width="8" height="16" fill="rgb(255,255,255)"/>
<rect class="gray" x="380" y="120" width="8" height="16" fill="rgb(255,255,255)"/>
<rect class="gray" x="380" y="72" width="8" height="16" fill="rgb(255,255,255)"/>
<rect class="gray" x="380" y="56" width="8" height="16" fill="rgb(255,255,255)"/>
<rect class="gray" x="380" y="40" width="8" height="16" fill="rgb(255,255,255)"/>
<rect class="gray" x="380" y="24" width="8" height="16" fill="rgb(255,255,255)"/>
<rect class="gray" x="380" y="8" width="8" height="16" fill="rgb(255,255,255)"/>
<rect class="gray" x="372" y="184" width="8" height="16" fill="rgb(255,255,255)"/>
<rect class="gray" x="372" y="120" width="8" height="16" fill="rgb(255,255,255)"/>
<rect class="gray" x="372" y="72" width="8" height="16" fill="rgb(255,255,255)"/>
<rect class="gray" x="372" y="56" width="8" height="16" fill="rgb(255,255,255)"/>
<rect class="gray" x="372" y="40" width="8" height="16" fill="rgb(255,255,255)"/>
<rect class="gray" x="372" y="24" width="8" height="16" fill="rgb(255,255,255)"/>
<rect class="gray" x="372" y="8" width="8" height="16" fill="rgb(255,255,255)"/>
<rect class="gray" x="364" y="184" width="8" height="16" fill="rgb(255,255,255)"/>
<rect class="gray" x="364" y="168" width="8" height="16" fill="rgb(255,255,255)"/>
<rect class="gray" x="364" y="152" width="8" height="16" fill="rgb(255,255,255)"/>
<rect class="gray" x="364" y="136" width="8" height="16" fill="rgb(255,255,255)"/>
<rect class="gray" x="364" y="120" width="8" height="16" fill="rgb(255,255,255)"/>
<rect class="gray" x="356" y="168" width="8" height="16" fill="rgb(255,255,255)"/>
<rect class="gray" x="356" y="152" width="8" height="16" fill="rgb(255,255,255)"/>
<rect class="gray" x="356" y="136" width="8" height="16" fill="rgb(255,255,255)"/>
<rect class="gray" x="324" y="72" width="8" height="16" fill="rgb(255,255,255)"/>
<rect class="gray" x="324" y="56" width="8" height="16" fill="rgb(255,255,255)"/>
<rect class="gray" x="324" y="40" width="8" height="16" fill="rgb(255,255,255)"/>
<rect class="gray" x="324" y="24" width="8" height="16" fill="rgb(255,255,255)"/>
<rect class="gray" x="324" y="8" width="8" height="16" fill="rgb(255,255,255)"/>
<rect class="gray" x="316" y="72" width="8" height="16" fill="rgb(255,255,255)"/>
<rect class="gray" x="316" y="56" width="8" height="16" fill="rgb(255,255,255)"/>
<rect class="gray" x="316" y="40" width="8" height="16" fill="rgb(255,255,255)"/>
<rect class="gray" x="316" y="24" width="8" height="16" fill="rgb(255,255,255)"/>
<rect class="gray" x="316" y="8" width="8" height="16" fill="rgb(255,255,255)"/>
<rect class="gray" x="308" y="184" width="8" height="16" fill="rgb(255,255,255)"/>
<rect class="gray" x="308" y="168" width="8" height="16" fill="rgb(255,255,255)"/>
<rect class="gray" x="308" y="152" width="8" height="16" fill="rgb(255,255,255)"/>
<rect class="gray" x="308" y="136" width="8" height="16" fill="rgb(255,255,255)"/>
<rect class="gray" x="308" y="120" width="8" height="16" fill="rgb(255,255,255)"/>
<rect class="gray" x="300" y="184" width="8" height="16" fill="rgb(255,255,255)"/>
<rect class="gray" x="300" y="168" width="8" height="16" fill="rgb(255,255,255)"/>
<rect class="gray" x="300" y="152" width="8" height="16" fill="rgb(255,255,255)"/>
<rect class="gray" x="300" y="136" width="8" height="16" fill="rgb(255,255,255)"/>
<rect class="gray" x="300" y="120" width="8" height="16" fill="rgb(255,255,255)"/>
<rect class="gray" x="268" y="40" width="8" height="16" fill="rgb(255,255,255)"/>
<rect class="gray" x="260" y="40" width="8" height="16" fill="rgb(255,255,255)"/>
<rect class="gray" x="252" y="184" width="8" height="16" fill="rgb(255,255,255)"/>
<rect class="gray" x="252" y="168" width="8" height="16" fill="rgb(255,255,255)"/>
<rect class="gray" x="252" y="136" width="8" height="16" fill="rgb(255,255,255)"/>
<rect class="gray" x="252" y="40" width="8" height="16" fill="rgb(255,255,255)"/>
<rect class="gray" x="244" y="184" width="8" height="16" fill="rgb(255,255,255)"/>
<rect class="gray" x="244" y="168" width="8" height="16" fill="rgb(255,255,255)"/>
<rect class="gray" x="244" y="152" width="8" height="16" fill="rgb(255,255,255)"/>
<rect class="gray" x="244" y="136" width="8" height="16" fill="rgb(255,255,255)"/>
<rect class="gray" x="244" y="120" width="8" height="16" fill="rgb(255,255,255)"/>
<rect class="gray" x="244" y="40" width="8" height="16" fill="rgb(255,255,255)"/>
<rect class="gray" x="236" y="152" width="8" height="16" fill="rgb(255,255,255)"/>
<rect class="gray" x="236" y="120" width="8" height="16" fill="rgb(255,255,255)"/>
<rect class="gray" x="236" y="40" width="8" height="16" fill="rgb(255,255,255)"/>
<rect class="gray" x="228" y="152" width="8" height="16" fill="rgb(255,255,255)"/>
<rect class="gray" x="228" y="120" width="8" height="16" fill="rgb(255,255,255)"/>
<rect class="gray" x="220" y="152" width="8" height="16" fill="rgb(255,255,255)"/>
<rect class="gray" x="220" y="120" width="8" height="16" fill="rgb(255,255,255)"/>
<rect class="gray" x="212" y="184" width="8" height="16" fill="rgb(255,255,255)"/>
<rect class="gray" x="212" y="168" width="8" height="16" fill="rgb(255,255,255)"/>
<rect class="gray" x="212" y="152" width="8" height="16" fill="rgb(255,255,255)"/>
<rect class="gray" x="212" y="136" width="8" height="16" fill="rgb(255,255,255)"/>
<rect class="gray" x="212" y="120" width="8" height="16" fill="rgb(255,255,255)"/>
<rect class="gray" x="204" y="184" width="8" height="16" fill="rgb(255,255,255)"/>
<rect class="gray" x="204" y="168" width="8" height="16" fill="rgb(255,255,255)"/>
<rect class="gray" x="204" y="152" width="8" height="16" fill="rgb(255,255,255)"/>
<rect class="gray" x="204" y="136" width="8" height="16" fill="rgb(255,255,255)"/>
<rect class="gray" x="204" y="120" width="8" height="16" fill="rgb(255,255,255)"/>
<rect class="gray" x="188" y="56" width="8" height="16" fill="rgb(255,255,255)"/>
<rect class="gray" x="188" y="40" width="8" height="16" fill="rgb(255,255,255)"/>
<rect class="gray" x="188" y="24" width="8" height="16" fill="rgb(255,255,255)"/>
<rect class="gray" x="180" y="72" width="8" height="16" fill="rgb(255,255,255)"/>
<rect class="gray" x="180" y="56" width="8" height="16" fill="rgb(255,255,255)"/>
<rect class="gray" x="180" y="40" width="8" height="16" fill="rgb(255,255,255)"/>
<rect class="gray" x="180" y="24" width="8" height="16" fill="rgb(255,255,255)"/>
<rect class="gray" x="180" y="8" width="8" height="16" fill="rgb(255,255,255)"/>
<rect class="gray" x="172" y="72" width="8" height="16" fill="rgb(255,255,255)"/>
<rect class="gray" x="172" y="8" width="8" height="16" fill="rgb(255,255,255)"/>
<rect class="gray" x="156" y="120" width="8" height="16" fill="rgb(255,255,255)"/>
<rect class="gray" x="148" y="136" width="8" height="16" fill="rgb(255,255,255)"/>
<rect class="gray" x="148" y="120" width="8" height="16" fill="rgb(255,255,255)"/>
<rect class="gray" x="140" y="152" width="8" height="16" fill="rgb(255,255,255)"/>
<rect class="gray" x="140" y="136" width="8" height="16" fill="rgb(255,255,255)"/>
<rect class="gray" x="132" y="184" width="8" height="16" fill="rgb(255,255,255)"/>
<rect class="gray" x="132" y="168" width="8" height="16" fill="rgb(255,255,255)"/>
<rect class="gray" x="132" y="152" width="8" height="16" fill="rgb(255,255,255)"/>
<rect class="gray" x="124" y="184" width="8" height="16" fill="rgb(255,255,255)"/>
<rect class="gray" x="124" y="168" width="8" height="16" fill="rgb(255,255,255)"/>
<rect class="gray" x="124" y="152" width="8" height="16" fill="rgb(255,255,255)"/>
<rect class="gray" x="124" y="56" width="8" height="16" fill="rgb(255,255,255)"/>
<rect class="gray" x="124" y="40" width="8" height="16" fill="rgb(255,255,255)"/>
<rect class="gray" x="116" y="152" width="8" height="16" fill="rgb(255,255,255)"/>
<rect class="gray" x="116" y="136" width="8" height="16" fill="rgb(255,255,255)"/>
<rect class="gray" x="116" y="72" width="8" height="16" fill="rgb(255,255,255)"/>
<rect class="gray" x="116" y="56" width="8" height="16" fill="rgb(255,255,255)"/>
<rect class="gray" x="116" y="40" width="8" height="16" fill="rgb(255,255,255)"/>
<rect class="gray" x="116" y="8" width="8" height="16" fill="rgb(255,255,255)"/>
<rect class="gray" x="108" y="136" width="8" height="16" fill="rgb(255,255,255)"/>
<rect class="gray" x="108" y="120" width="8" height="16" fill="rgb(255,255,255)"/>
<rect class="gray" x="108" y="72" width="8" height="16" fill="rgb(255,255,255)"/>
<rect class="gray" x="108" y="40" width="8" height="16" fill="rgb(255,255,255)"/>
<rect class="gray" x="108" y="8" width="8" height="16" fill="rgb(255,255,255)"/>
<rect class="gray" x="100" y="120" width="8" height="16" fill="rgb(255,255,255)"/>
<rect class="gray" x="100" y="72" width="8" height="16" fill="rgb(255,255,255)"/>
<rect class="gray" x="100" y="8" width="8" height="16" fill="rgb(255,255,255)"/>
<rect class="gray" x="92" y="72" width="8" height="16" fill="rgb(255,255,255)"/>
<rect class="gray" x="92" y="8" width="8" height="16" fill="rgb(255,255,255)"/>
<rect class="gray" x="84" y="72" width="8" height="16" fill="rgb(255,255,255)"/>
<rect class="gray" x="84" y="8" width="8" height="16" fill="rgb(255,255,255)"/>
<rect class="gray" x="76" y="72" width="8" height="16" fill="rgb(255,255,255)"/>
<rect class="gray" x="76" y="56" width="8" height="16" fill="rgb(255,255,255)"/>
<rect class="gray" x="76" y="40" width="8" height="16" fill="rgb(255,255,255)"/>
<rect class="gray" x="76" y="24" width="8" height="16" fill="rgb(255,255,255)"/>
<rect class="gray" x="76" y="8" width="8" height="16" fill="rgb(255,255,255)"/>
<rect class="gray" x="68" y="56" width="8" height="16" fill="rgb(255,255,255)"/>
<rect class="gray" x="68" y="40" width="8" height="16" fill="rgb(255,255,255)"/>
<rect class="gray" x="68" y="24" width="8" height="16" fill="rgb(255,255,255)"/>
<rect class="gray" x="52" y="184" width="8" height="16" fill="rgb(255,255,255)"/>
<rect class="gray" x="44" y="184" width="8" height="16" fill="rgb(255,255,255)"/>
<rect class="gray" x="36" y="184" width="8" height="16" fill="rgb(255,255,255)"/>
<rect class="gray" x="28" y="184" width="8" height="16" fill="rgb(255,255,255)"/>
<rect class="gray" x="20" y="184" width="8" height="16" fill="rgb(255,255,255)"/>
<rect class="gray" x="20" y="72" width="8" height="16" fill="rgb(255,255,255)"/>
<rect class="gray" x="20" y="8" width="8" height="16" fill="rgb(255,255,255)"/>
<rect class="gray" x="12" y="184" width="8" height="16" fill="rgb(255,255,255)"/>
<rect class="gray" x="12" y="168" width="8" height="16" fill="rgb(255,255,255)"/>
<rect class="gray" x="12" y="152" width="8" height="16" fill="rgb(255,255,255)"/>
<rect class="gray" x="12" y="136" width="8" height="16" fill="rgb(255,255,255)"/>
<rect class="gray" x="12" y="120" width="8" height="16" fill="rgb(255,255,255)"/>
<rect class="gray" x="12" y="72" width="8" height="16" fill="rgb(255,255,255)"/>
<rect class="gray" x="12" y="56" width="8" height="16" fill="rgb(255,255,255)"/>
<rect class="gray" x="12" y="40" width="8" height="16" fill="rgb(255,255,255)"/>
<rect class="gray" x="12" y="24" width="8" height="16" fill="rgb(255,255,255)"/>
<rect class="gray" x="12" y="8" width="8" height="16" fill="rgb(255,255,255)"/>
<rect class="gray" x="4" y="184" width="8" height="16" fill="rgb(255,255,255)"/>
<rect class="gray" x="4" y="168" width="8" height="16" fill="rgb(255,255,255)"/>
<rect class="gray" x="4" y="152" width="8" height="16" fill="rgb(255,255,255)"/>
<rect class="gray" x="4" y="136" width="8" height="16" fill="rgb(255,255,255)"/>
<rect class="gray" x="4" y="120" width="8" height="16" fill="rgb(255,255,255)"/>
<rect class="gray" x="4" y="56" width="8" height="16" fill="rgb(255,255,255)"/>
<rect class="gray" x="4" y="40" width="8" height="16" fill="rgb(255,255,255)"/>
<rect class="gray" x="4" y="24" width="8" height="16" fill="rgb(255,255,255)"/>
<g class="text">
<text x="32" y="20">╗</text>
<text x="128" y="20">╗</text>
<text x="192" y="20">╗</text>
<text x="336" y="20">╗</text>
<text x="424" y="20">╗</text>
<text x="488" y="20">╗</text>
<text x="624" y="20">╗</text>
<text x="28" y="36">╔╝</text>
<text x="88" y="36">╔</text>
<text x="128" y="36">╝</text>
<text x="176" y="36">╚</text>
<text x="200" y="36">╗</text>
<text x="400" y="36">╔══</text>
<text x="432" y="36">╗</text>
<text x="584" y="36">╔</text>
<text x="624" y="36">╝</text>
<text x="136" y="52">╗</text>
<text x="280" y="52">╗</text>
<text x="608" y="52">╗</text>
<text x="136" y="68">║</text>
<text x="240" y="68">╚</text>
<text x="280" y="68">╝</text>
<text x="596" y="68">╔══╝</text>
<text x="8" y="84">╚</text>
<text x="32" y="84">╗</text>
<text x="72" y="84">╚</text>
<text x="132" y="84">╔╝</text>
<text x="196" y="84">╔╝</text>
<text x="428" y="84">╔╝</text>
<text x="528" y="84">╗</text>
<text x="624" y="84">╗</text>
<text x="24" y="100">╚═╝</text>
<text x="80" y="100">╚</text>
<text x="128" y="100">╝</text>
<text x="184" y="100">╚═╝</text>
<text x="328" y="100">╚═╝</text>
<text x="376" y="100">╚</text>
<text x="424" y="100">╝</text>
<text x="472" y="100">╚</text>
<text x="528" y="100">╝</text>
<text x="568" y="100">╚</text>
<text x="624" y="100">╝</text>
<text x="24" y="132">╗</text>
<text x="120" y="132">╗</text>
<text x="168" y="132">╗</text>
<text x="256" y="132">╗</text>
<text x="320" y="132">╗</text>
<text x="416" y="132">╗</text>
<text x="536" y="132">╗</text>
<text x="640" y="132">╗</text>
<text x="752" y="132">╗</text>
<text x="104" y="148">╚</text>
<text x="128" y="148">╗</text>
<text x="164" y="148">╔╝</text>
<text x="232" y="148">╔══</text>
<text x="264" y="148">╗</text>
<text x="376" y="148">╔</text>
<text x="416" y="148">╝</text>
<text x="512" y="148">╔══</text>
<text x="544" y="148">╗</text>
<text x="600" y="148">╔</text>
<text x="648" y="148">╗</text>
<text x="696" y="148">╚══</text>
<text x="740" y="148">╔══╝</text>
<text x="112" y="164">╚</text>
<text x="156" y="164">╔╝</text>
<text x="260" y="164">╔╝</text>
<text x="540" y="164">╔╝</text>
<text x="120" y="180">╚</text>
<text x="148" y="180">╔╝</text>
<text x="232" y="180">╔══</text>
<text x="264" y="180">╗</text>
<text x="512" y="180">╔══</text>
<text x="544" y="180">╗</text>
<text x="64" y="196">╗</text>
<text x="144" y="196">║</text>
<text x="224" y="196">║</text>
<text x="264" y="196">║</text>
<text x="360" y="196">╚</text>
<text x="416" y="196">╗</text>
<text x="540" y="196">╔╝</text>
<text x="584" y="196">╚</text>
<text x="644" y="196">╔╝</text>
<text x="8" y="212">╚</text>
<text x="64" y="212">╝</text>
<text x="136" y="212">╚═╝</text>
<text x="216" y="212">╚═╝</text>
<text x="256" y="212">╚═╝</text>
<text x="312" y="212">╚═╝</text>
<text x="368" y="212">╚</text>
<text x="416" y="212">╝</text>
<text x="488" y="212">╚</text>
<text x="536" y="212">╝</text>
<text x="592" y="212">╚</text>
<text x="640" y="212">╝</text>
<text x="720" y="212">╚═╝</text>
</g>
</svg>
